<?xml version="1.0" standalone="no"?>
<!DOCTYPE svg PUBLIC "-//W3C//DTD SVG 20010904//EN"
 "http://www.w3.org/TR/2001/REC-SVG-20010904/DTD/svg10.dtd">
<svg version="1.0" xmlns="http://www.w3.org/2000/svg"
 width="1024.000000pt" height="1024.000000pt" viewBox="0 0 1024.000000 1024.000000"
 preserveAspectRatio="xMidYMid meet">

<g transform="translate(0.000000,1024.000000) scale(0.100000,-0.100000)"
fill="#000000" stroke="none">
<path d="M0 5120 l0 -5120 5120 0 5120 0 0 5120 0 5120 -5120 0 -5120 0 0
-5120z m5680 2500 c0 -18 7 -20 80 -20 73 0 80 -2 80 -20 0 -18 7 -20 60 -20
53 0 60 -2 60 -20 0 -18 7 -20 60 -20 53 0 60 -2 60 -20 0 -18 7 -20 60 -20
53 0 60 -2 60 -20 0 -18 7 -20 60 -20 53 0 60 -2 60 -20 0 -17 7 -20 40 -20
l40 0 0 -40 0 -40 80 0 80 0 0 -40 0 -40 40 0 c33 0 40 -3 40 -20 0 -13 7 -20
20 -20 13 0 20 -7 20 -20 0 -18 7 -20 60 -20 53 0 60 -2 60 -20 0 -17 7 -20
40 -20 33 0 40 -3 40 -20 0 -13 7 -20 20 -20 13 0 20 -7 20 -20 0 -13 7 -20
20 -20 13 0 20 -7 20 -20 0 -17 7 -20 40 -20 33 0 40 -3 40 -20 0 -17 7 -20
40 -20 33 0 40 -3 40 -20 0 -17 7 -20 40 -20 33 0 40 -3 40 -20 0 -13 7 -20
20 -20 13 0 20 -7 20 -20 0 -13 7 -20 20 -20 13 0 20 -7 20 -20 0 -13 7 -20
20 -20 13 0 20 -7 20 -20 0 -17 7 -20 40 -20 33 0 40 -3 40 -20 0 -14 7 -20
23 -20 12 0 29 -5 37 -10 11 -7 0 -10 -37 -10 -28 0 -55 5 -58 10 -8 12 -45
13 -45 1 0 -10 59 -21 118 -21 38 0 42 -2 42 -25 0 -18 5 -25 20 -25 13 0 20
-7 20 -20 0 -13 7 -20 19 -20 12 0 21 -9 25 -27 3 -16 9 -39 12 -52 5 -16 4
-22 -4 -17 -6 3 -13 -2 -15 -11 -3 -10 -5 8 -6 40 0 31 -5 57 -11 57 -6 0 -10
-77 -9 -212 1 -238 16 -343 19 -133 1 72 5 150 8 174 8 48 32 70 32 28 0 -52
12 -87 30 -87 14 0 20 -11 26 -42 6 -38 8 -40 14 -18 5 22 10 24 45 21 22 -1
41 -4 43 -6 2 -2 6 -28 9 -59 5 -46 9 -56 24 -56 12 0 19 -7 19 -20 0 -11 5
-20 10 -20 6 0 10 -9 10 -20 0 -11 5 -20 10 -20 6 0 10 -9 10 -20 0 -13 7 -20
20 -20 18 0 20 -7 20 -80 l0 -80 40 0 40 0 0 -40 c0 -22 5 -40 10 -40 6 0 10
-9 10 -20 0 -11 5 -20 10 -20 6 0 10 -18 10 -40 0 -33 3 -40 20 -40 19 0 20
-7 20 -100 0 -93 1 -100 20 -100 17 0 20 -7 20 -40 0 -33 3 -40 20 -40 19 0
20 -7 20 -160 0 -153 1 -160 20 -160 18 0 20 -7 20 -80 0 -73 2 -80 20 -80 18
0 20 -7 20 -80 0 -73 -2 -80 -20 -80 -18 0 -20 -7 -20 -80 0 -73 2 -80 20 -80
18 0 20 -7 20 -80 0 -73 -2 -80 -20 -80 -19 0 -20 -7 -20 -160 0 -153 -1 -160
-20 -160 -17 0 -20 -7 -20 -40 0 -33 -3 -40 -20 -40 -19 0 -20 -7 -20 -120 0
-113 -1 -120 -20 -120 -17 0 -20 -7 -20 -40 0 -33 -3 -40 -20 -40 -18 0 -20
-7 -20 -60 0 -53 -2 -60 -20 -60 -17 0 -20 -7 -20 -40 0 -36 -2 -40 -25 -40
-24 0 -25 -3 -26 -62 -1 -47 -3 -57 -9 -38 -8 24 -8 24 -9 3 -1 -20 -7 -23
-40 -23 l-39 0 -8 78 c-10 94 -10 75 -18 827 -3 336 -9 634 -12 663 -4 40 -13
60 -37 86 -31 33 -37 35 -172 62 -12 2 -30 24 -46 56 -14 29 -74 126 -134 216
-76 115 -128 182 -177 227 l-68 63 145 1 c80 1 152 4 160 7 8 3 28 28 45 55
l30 49 0 364 0 365 -26 20 c-26 21 -37 21 -475 21 l-449 0 -14 -22 c-10 -18
-15 -83 -19 -273 -3 -141 -11 -271 -17 -297 -22 -86 -4 -83 -410 -86 l-357 -3
-55 83 c-30 46 -72 111 -93 146 -21 34 -57 80 -81 102 l-44 40 -337 0 c-303 0
-342 -2 -370 -17 -18 -10 -88 -88 -156 -173 -69 -85 -135 -165 -149 -177 -23
-21 -32 -22 -268 -25 -135 -2 -392 1 -572 6 l-328 9 -40 -28 c-22 -15 -60 -57
-84 -94 -110 -167 -301 -489 -352 -594 l-27 -55 -108 5 -107 6 -42 -33 c-23
-18 -45 -43 -50 -55 -5 -13 -10 -427 -11 -920 -2 -859 -3 -898 -21 -903 -10
-2 -18 -14 -19 -26 -1 -19 -2 -19 -9 4 -8 24 -8 24 -9 3 -1 -28 -21 -31 -21
-3 0 13 -7 20 -20 20 -17 0 -20 7 -20 40 0 29 -4 40 -15 40 -11 0 -15 14 -16
58 -1 31 -3 49 -6 40 -8 -32 -22 -19 -21 19 1 20 -4 39 -10 41 -21 7 -14 42 8
42 14 0 20 6 19 23 -1 16 -2 18 -6 5 -5 -22 -33 -24 -33 -3 0 8 -7 15 -15 15
-12 0 -15 13 -15 60 0 57 -1 60 -25 60 -23 0 -25 4 -25 41 0 36 2 41 20 36 11
-3 18 -1 14 4 -3 5 -12 9 -20 9 -8 0 -14 7 -14 15 0 8 -7 15 -15 15 -12 0 -15
19 -17 103 -1 56 -3 83 -5 60 -3 -35 -8 -43 -24 -43 -17 0 -19 7 -19 60 0 53
-2 60 -20 60 -18 0 -20 7 -20 80 0 73 -2 80 -20 80 -19 0 -20 7 -20 100 0 93
1 100 20 100 29 0 29 69 0 77 -19 5 -20 16 -22 367 -3 353 -3 362 18 401 14
25 24 68 29 118 5 56 10 77 21 77 9 0 14 11 14 35 0 46 27 48 33 3 4 -32 4
-32 5 5 2 31 6 37 25 38 15 1 17 3 6 6 -11 2 -18 17 -21 39 -3 28 -1 34 14 34
14 0 18 8 18 35 0 26 4 35 18 36 16 1 16 2 0 6 -10 2 -18 13 -18 24 0 24 37
26 43 2 3 -10 5 8 6 40 1 43 5 57 16 57 11 0 15 11 15 40 0 28 4 40 15 40 10
0 15 -16 18 -62 2 -45 4 -33 5 40 l2 102 39 0 c33 0 40 -4 44 -22 3 -14 5 -9
6 15 1 26 6 37 16 37 11 0 15 12 15 45 0 38 3 45 20 45 17 0 20 -7 20 -40 0
-35 3 -40 23 -39 16 1 18 2 5 6 -24 6 -27 113 -3 113 8 0 15 9 15 20 0 37 29
22 33 -17 3 -28 4 -23 5 20 2 50 5 57 22 57 13 0 20 7 20 20 0 13 -7 20 -20
20 -13 0 -20 7 -20 20 0 13 7 20 20 20 13 0 20 7 20 20 0 30 40 27 41 -2 1
-16 3 -18 6 -6 2 9 12 19 21 21 12 3 10 5 -5 6 -30 1 -33 41 -3 41 13 0 20 7
20 20 0 13 7 20 20 20 13 0 20 7 20 20 0 13 7 20 20 20 11 0 20 6 20 14 0 7 9
16 21 19 11 3 23 15 26 26 3 12 12 21 19 21 8 0 14 7 14 15 0 10 14 17 40 21
30 5 40 11 40 25 0 12 7 19 20 19 17 0 20 7 20 40 0 33 3 40 20 40 13 0 20 7
20 20 0 13 7 20 20 20 17 0 20 7 20 40 0 33 3 40 20 40 13 0 20 7 20 20 0 25
37 27 43 3 3 -10 5 -1 6 20 1 35 2 37 36 37 28 0 35 4 35 20 0 13 7 20 20 20
11 0 20 6 20 14 0 7 9 16 20 19 12 3 20 14 20 26 0 14 6 21 20 21 13 0 20 7
20 20 0 17 7 20 40 20 33 0 40 3 40 20 0 13 7 20 20 20 13 0 20 7 20 20 0 17
7 20 40 20 33 0 40 3 40 20 0 13 7 20 20 20 13 0 20 7 20 20 0 17 7 20 40 20
22 0 40 5 40 10 0 6 9 10 20 10 11 0 20 5 20 10 0 6 9 10 20 10 13 0 20 7 20
20 0 17 7 20 40 20 l40 0 0 40 0 40 100 0 100 0 0 34 c0 33 2 35 38 38 30 2
38 7 40 26 3 18 10 22 43 22 32 0 39 3 39 20 0 18 7 20 80 20 73 0 80 2 80 20
0 17 7 20 40 20 31 0 40 -4 41 -17 1 -17 2 -17 6 0 3 12 15 17 39 17 27 0 34
4 34 20 0 19 7 20 160 20 153 0 160 1 160 20 0 20 7 20 440 20 433 0 440 0
440 -20z m1990 -1254 c0 -19 -4 -38 -10 -41 -6 -4 -10 10 -10 34 0 23 5 41 10
41 6 0 10 -15 10 -34z m-2693 -692 c-3 -3 -12 -4 -19 -1 -8 3 -5 6 6 6 11 1
17 -2 13 -5z m-107 -25 c-76 -18 -107 -23 -98 -14 6 7 128 33 153 33 11 0 -14
-8 -55 -19z m-125 -29 c-11 -5 -29 -8 -40 -8 -16 0 -15 2 5 8 34 11 60 11 35
0z m-965 -140 c35 0 50 -36 50 -125 0 -73 -16 -94 -79 -102 -58 -8 -74 0 -60
31 9 20 8 32 -5 61 -25 52 -18 116 14 132 14 7 31 11 38 8 8 -3 26 -5 42 -5z
m3227 -437 c34 -42 46 -95 33 -144 -9 -33 -18 -43 -47 -55 -76 -32 -149 -13
-181 47 -19 36 -10 125 15 151 46 45 143 46 180 1z m-4937 -603 c0 -20 -5 -30
-15 -30 -10 0 -15 10 -15 30 0 20 5 30 15 30 10 0 15 -10 15 -30z m3368 -808
c24 -12 48 -20 53 -17 16 10 10 -11 -17 -64 -33 -63 -123 -150 -195 -187 -71
-38 -170 -39 -277 -5 -62 20 -84 34 -143 90 -38 36 -72 77 -74 90 l-4 24 27
-26 c35 -34 46 -34 38 -1 -6 22 -4 25 12 19 13 -3 22 0 25 9 3 8 24 20 46 27
23 7 41 15 41 19 0 4 26 12 58 19 31 7 66 17 77 22 11 5 81 8 155 6 118 -2
140 -5 178 -25z m1162 -1142 c-6 -11 -8 -20 -4 -20 3 0 1 -6 -6 -14 -6 -8 -19
-12 -27 -9 -13 5 -15 1 -9 -23 5 -21 4 -25 -4 -14 -5 8 -10 11 -10 7 0 -5 -5
-5 -11 -1 -7 4 6 23 32 50 48 49 55 53 39 24z m-90 -89 c0 -5 -7 -12 -16 -15
-14 -5 -15 -4 -4 9 14 17 20 19 20 6z m-45 -60 c-3 -6 -11 -11 -17 -11 -6 0
-6 6 2 15 14 17 26 13 15 -4z m-50 -40 c-3 -6 -11 -11 -17 -11 -6 0 -6 6 2 15
14 17 26 13 15 -4z m-55 -41 c0 -5 -5 -10 -11 -10 -5 0 -7 5 -4 10 3 6 8 10
11 10 2 0 4 -4 4 -10z m-41 -33 c-2 -1 -13 -9 -24 -17 -19 -14 -19 -14 -6 3 7
9 18 17 24 17 6 0 8 -1 6 -3z m-49 -31 c0 -2 -8 -10 -17 -17 -16 -13 -17 -12
-4 4 13 16 21 21 21 13z m3511 -1055 c60 -60 109 -114 109 -120 0 -5 -8 -15
-17 -20 -15 -8 -37 9 -130 102 -106 104 -111 112 -96 129 9 10 18 18 21 18 3
0 54 -49 113 -109z m-76 -81 c60 -60 107 -112 104 -114 -2 -3 -100 -102 -218
-221 l-215 -216 -113 113 c-62 61 -111 113 -110 114 113 119 430 434 435 434
4 0 57 -49 117 -110z m-531 -15 c4 -15 16 -27 31 -31 14 -3 25 -10 25 -14 0
-4 -11 -11 -25 -14 -15 -4 -27 -16 -31 -31 -3 -14 -10 -25 -14 -25 -4 0 -11
11 -14 25 -4 15 -16 27 -31 31 -14 3 -25 10 -25 14 0 4 11 11 25 14 15 4 27
16 31 31 3 14 10 25 14 25 4 0 11 -11 14 -25z m646 -339 c9 -28 20 -38 53 -49
l42 -15 -43 -18 c-35 -14 -44 -24 -54 -56 -6 -21 -14 -38 -18 -38 -4 0 -12 18
-19 40 -10 34 -17 41 -51 51 -22 7 -40 15 -40 19 0 4 18 12 40 19 33 10 41 17
51 51 14 45 23 44 39 -4z m-595 -126 c110 -110 110 -110 90 -130 -20 -20 -20
-20 -134 94 -105 105 -111 114 -96 129 9 10 20 17 23 17 4 0 57 -49 117 -110z"/>
<path d="M4343 7513 c9 -2 25 -2 35 0 9 3 1 5 -18 5 -19 0 -27 -2 -17 -5z"/>
<path d="M7358 6613 c12 -2 32 -2 45 0 12 2 2 4 -23 4 -25 0 -35 -2 -22 -4z"/>
<path d="M7500 6590 c0 -5 5 -10 11 -10 5 0 7 5 4 10 -3 6 -8 10 -11 10 -2 0
-4 -4 -4 -10z"/>
<path d="M2722 6360 c0 -19 2 -27 5 -17 2 9 2 25 0 35 -3 9 -5 1 -5 -18z"/>
<path d="M2642 6220 c0 -14 2 -19 5 -12 2 6 2 18 0 25 -3 6 -5 1 -5 -13z"/>
<path d="M7652 6220 c0 -14 2 -19 5 -12 2 6 2 18 0 25 -3 6 -5 1 -5 -13z"/>
<path d="M2153 5315 c0 -22 2 -30 4 -17 2 12 2 30 0 40 -3 9 -5 -1 -4 -23z"/>
<path d="M7893 3525 c0 -22 2 -30 4 -17 2 12 2 30 0 40 -3 9 -5 -1 -4 -23z"/>
<path d="M6570 2459 c0 -5 5 -7 10 -4 6 3 10 8 10 11 0 2 -4 4 -10 4 -5 0 -10
-5 -10 -11z"/>
<path d="M9538 1007 c-165 -94 -303 -301 -241 -362 57 -58 282 101 361 254 34
67 40 109 20 129 -22 22 -81 13 -140 -21z"/>
</g>
</svg>
